<svg xmlns="http://www.w3.org/2000/svg" viewBox="0 0 800 520">
  <rect width="800" height="520" fill="#211611"/>
  <circle cx="640" cy="80" r="180" fill="#f97316" opacity="0.34"/>
  <circle cx="160" cy="420" r="180" fill="#b91c1c" opacity="0.28"/>
  <path d="M190 245c18-83 96-134 210-134s192 51 210 134H190z" fill="#fff7ed"/>
  <rect x="170" y="261" width="460" height="36" rx="18" fill="#fbbf24"/>
  <rect x="182" y="312" width="436" height="62" rx="31" fill="#5b2613"/>
  <path d="M170 392c47-28 79 21 126-4s81 22 128-2 80 20 206-6v42H170v-30z" fill="#22c55e"/>
  <path d="M184 434h432v14c0 40-32 72-72 72H256c-40 0-72-32-72-72v-14z" fill="#fff7ed"/>
  <text x="400" y="72" text-anchor="middle" fill="#fff7ed" font-family="Arial, sans-serif" font-size="34" font-weight="700">Century Burger</text>
</svg>
